<svg id="Layer_1" data-name="Layer 1" xmlns="http://www.w3.org/2000/svg" xmlns:xlink="http://www.w3.org/1999/xlink" width="512.79" height="131.61" viewBox="0 0 512.79 131.61"><defs><mask id="mask" x="65.97" y="85.16" width="46.45" height="46.45" maskUnits="userSpaceOnUse"><g transform="translate(-0.74)"><g id="logo-b"><polygon id="logo-a" points="66.71 85.16 113.15 85.16 113.15 131.6 66.71 131.6 66.71 85.16" style="fill:#fff;fill-rule:evenodd"/></g></g></mask><mask id="mask-2" x="449.36" y="27.24" width="63.43" height="26" maskUnits="userSpaceOnUse"><g transform="translate(-0.74)"><g id="logo-d"><polygon id="logo-c" points="450.09 27.24 513.52 27.24 513.52 53.24 450.09 53.24 450.09 27.24" style="fill:#fff;fill-rule:evenodd"/></g></g></mask></defs><title>logo</title><path d="M20.07,27.21A27.2,27.2,0,0,1,66.51,8L28,46.45a27.12,27.12,0,0,1-8-19.24" transform="translate(-0.74)" style="fill:#ce1e55;fill-rule:evenodd"/><path d="M47.22,27.24A27.21,27.21,0,0,1,8.74,65.72Z" transform="translate(-0.74)" style="fill:#e2215b;fill-rule:evenodd"/><path d="M27.94,112.13A27.2,27.2,0,0,1,8.71,65.69l38.48,38.47a27.18,27.18,0,0,1-19.25,8" transform="translate(-0.74)" style="fill:#079b7f;fill-rule:evenodd"/><path d="M28.21,85.16a27.21,27.21,0,1,1,38.48,38.48Z" transform="translate(-0.74)" style="fill:#00c8a1;fill-rule:evenodd"/><path d="M78,85.18a27.2,27.2,0,0,1,46.44-19.24L86,104.42a27.13,27.13,0,0,1-8-19.24" transform="translate(-0.74)" style="fill:#f2b600;fill-rule:evenodd"/><g style="mask:url(#mask)"><path d="M105.18,85.16a27.2,27.2,0,1,1-38.47,38.47Z" transform="translate(-0.74)" style="fill:#daa727;fill-rule:evenodd"/></g><path d="M105.19,19.51A27.21,27.21,0,0,1,124.43,66L85.94,27.48a27.12,27.12,0,0,1,19.25-8" transform="translate(-0.74)" style="fill:#0fa3d0;fill-rule:evenodd"/><path d="M105,46.45A27.21,27.21,0,0,1,66.51,8Z" transform="translate(-0.74)" style="fill:#13b3e2;fill-rule:evenodd"/><path d="M151,82.67a1.57,1.57,0,1,1-3.14,0V65.89a1.54,1.54,0,0,1,.63-1.32,1.6,1.6,0,0,1,2.2.34L160,77.8V65.92a1.57,1.57,0,0,1,1.55-1.56,1.6,1.6,0,0,1,1.59,1.56V82.67a1.6,1.6,0,0,1-1.59,1.59,1.55,1.55,0,0,1-1.18-.58.7.7,0,0,1-.14-.17L151,70.71Zm28.8-7H188a4.72,4.72,0,0,0-4.26-3.06,4,4,0,0,0-3.9,3.06m-3.14,1.41a7.15,7.15,0,0,1,7-7.21,6.9,6.9,0,0,1,6.94,6.69v.15a.8.8,0,0,1,0,.26,1.38,1.38,0,0,1-1.49,1.15H180a3.74,3.74,0,0,0,1,1.9,4.48,4.48,0,0,0,2.77,1.3,4.72,4.72,0,0,0,3-.72,1.64,1.64,0,0,1,2.17-.09,1.33,1.33,0,0,1,0,1.88,7.34,7.34,0,0,1-5.16,1.9,7.16,7.16,0,0,1-7-7.21m31.83-5.62A1.62,1.62,0,0,1,206.87,73h-.72v8a1.59,1.59,0,0,1,1.59,1.61,1.56,1.56,0,0,1-1.59,1.59,3.21,3.21,0,0,1-3.2-3.2V73h-.83a1.58,1.58,0,0,1-1.59-1.58,1.56,1.56,0,0,1,1.59-1.59H203V65.66a1.59,1.59,0,0,1,1.62-1.58,1.56,1.56,0,0,1,1.58,1.58v4.18h.72a1.61,1.61,0,0,1,1.62,1.59m31.51.72-4.76,11.19s-.06.14-.11.23,0,0,0,0a.8.8,0,0,1-.15.18s0,0,0,0a1.1,1.1,0,0,1-.18.14s0,0,0,.06a.65.65,0,0,1-.26.14s0,0,0,0a.93.93,0,0,0-.24.06h0a.89.89,0,0,1-.29,0,.77.77,0,0,1-.26,0h-.06a.39.39,0,0,0-.2-.06l0,0h0A.72.72,0,0,1,233,84v0c-.08,0-.11-.09-.17-.14s-.06,0-.06,0a.73.73,0,0,1-.14-.18s0,0,0,0-.09-.18-.12-.23l-2.1-5-2.05,5-.14.23v0l-.17.18a0,0,0,0,1,0,0l-.18.17a.81.81,0,0,1-.26.17h0a0,0,0,0,0,0,0,.32.32,0,0,0-.18.06h-.05a1.06,1.06,0,0,1-.29,0,.86.86,0,0,1-.29,0h-.09a.35.35,0,0,0-.17-.06s0,0-.06,0a.54.54,0,0,1-.26-.17s0,0,0,0a.53.53,0,0,0-.17-.14l-.06,0a1.74,1.74,0,0,0-.11-.18s0,0,0,0a2,2,0,0,0-.14-.23L220.8,72.15a1.49,1.49,0,0,1,.83-2,1.44,1.44,0,0,1,1.91.86l3.4,7.76L229,74a1.53,1.53,0,0,1,1.41-.93,1.48,1.48,0,0,1,1.41.93l2.05,4.81,3.4-7.76a1.44,1.44,0,0,1,1.93-.86,1.52,1.52,0,0,1,.84,2m16,4.93a4.65,4.65,0,0,0,1,3,3.87,3.87,0,0,0,2.77,1.07,3.75,3.75,0,0,0,2.65-1.07,4.4,4.4,0,0,0,1.12-3,4.35,4.35,0,0,0-1.12-3,4.11,4.11,0,0,0-2.65-1.1,4.21,4.21,0,0,0-2.77,1.1,4.59,4.59,0,0,0-1,3m-1.15,5.07a7.18,7.18,0,0,1-2-5.07,7.46,7.46,0,0,1,2-5,6.74,6.74,0,0,1,5-2.19A6.38,6.38,0,0,1,264.59,72a7.22,7.22,0,0,1,2,5,7,7,0,0,1-2,5.07,6.35,6.35,0,0,1-4.81,2.19,6.7,6.7,0,0,1-5-2.19m32.92-10.78a1.54,1.54,0,0,1-1.53,1.53,2.73,2.73,0,0,0-1.73.55,4.15,4.15,0,0,0-1.32,1.38A9.19,9.19,0,0,0,282,77.25v5.48a1.57,1.57,0,0,1-1.58,1.53,1.54,1.54,0,0,1-1.53-1.53V71.37a1.52,1.52,0,0,1,1.53-1.5,1.55,1.55,0,0,1,1.58,1.5v.2a4.73,4.73,0,0,1,.61-.58,6.33,6.33,0,0,1,3.63-1.12,1.5,1.5,0,0,1,1.53,1.5m11.71,11.3v-17A1.58,1.58,0,0,1,301,64.08a1.61,1.61,0,0,1,1.62,1.58v10l5.91-5.91a1.6,1.6,0,0,1,2.24,0,1.56,1.56,0,0,1,0,2.25l-4.32,4.32,4.44,5.33a1.6,1.6,0,0,1-.23,2.25,1.54,1.54,0,0,1-2.22-.2l-4.24-5.13-1.58,1.58v2.54A1.61,1.61,0,0,1,301,84.26a1.58,1.58,0,0,1-1.58-1.59m40.07-8.79A10.58,10.58,0,0,1,350.1,63.5a10.8,10.8,0,0,1,6.66,2.25,1.71,1.71,0,0,1,.29,2.31,1.69,1.69,0,0,1-2.31.31,7.16,7.16,0,0,0-4.64-1.58,7.66,7.66,0,0,0-5.19,2.07,7.12,7.12,0,0,0-2.11,5,7,7,0,0,0,2.11,5A7.66,7.66,0,0,0,350.1,81a7.28,7.28,0,0,0,4.64-1.58,1.75,1.75,0,0,1,2.31.31,1.71,1.71,0,0,1-.29,2.31,10.8,10.8,0,0,1-6.66,2.25,10.55,10.55,0,0,1-10.58-10.38m39.87,3.2a4.21,4.21,0,0,0-1.13-3,3.55,3.55,0,0,0-2.68-1.18,3.49,3.49,0,0,0-2.68,1.18,4.23,4.23,0,0,0-1.09,3,4.34,4.34,0,0,0,1.09,3,3.65,3.65,0,0,0,2.68,1.12,3.72,3.72,0,0,0,2.68-1.12,4.32,4.32,0,0,0,1.13-3Zm3.05,0v5.65a1.53,1.53,0,0,1-1.52,1.53,1.57,1.57,0,0,1-1.5-1.24,6.54,6.54,0,0,1-3.84,1.24,6.69,6.69,0,0,1-4.9-2.11,7.36,7.36,0,0,1-2-5.07,7.25,7.25,0,0,1,2-5.07,6.54,6.54,0,0,1,8.74-.9,1.57,1.57,0,0,1,1.5-1.27,1.55,1.55,0,0,1,1.52,1.56Zm25.32-1.24v6.89a1.52,1.52,0,0,1-1.5,1.53,1.56,1.56,0,0,1-1.53-1.53V75.84a3,3,0,0,0-3-2.91,2.88,2.88,0,0,0-2.88,2.91v6.89a.56.56,0,0,1-.06.29,1.58,1.58,0,0,1-1.53,1.24,1.52,1.52,0,0,1-1.52-1.53V71.37a1.52,1.52,0,0,1,1.52-1.53,1.57,1.57,0,0,1,1.42.9,5.72,5.72,0,0,1,3.05-.9,6,6,0,0,1,6,6m24.39-3.69-4.73,11.19a.7.7,0,0,1-.12.2,0,0,0,0,1,0,0c0,.05-.11.14-.17.2a0,0,0,0,1,0,0,1.36,1.36,0,0,1-.17.17,0,0,0,0,0,0,0,.56.56,0,0,1-.2.14h-.06v0a.56.56,0,0,0-.23.06h-.06a1,1,0,0,1-.28,0,.93.93,0,0,1-.26,0h-.06a.71.71,0,0,0-.23-.06v0h-.06a2.36,2.36,0,0,1-.26-.14,0,0,0,0,0,0,0,.91.91,0,0,1-.17-.17s0,0-.06,0a.9.9,0,0,0-.14-.2s0,0,0,0-.09-.12-.12-.2L420,72.15a1.47,1.47,0,0,1,.84-2,1.48,1.48,0,0,1,1.93.83L426,78.87,429.38,71a1.5,1.5,0,1,1,2.77,1.13m21.73,4.93a4.25,4.25,0,0,0-1.12-3,3.55,3.55,0,0,0-2.68-1.18,3.46,3.46,0,0,0-2.68,1.18,4.23,4.23,0,0,0-1.1,3,4.34,4.34,0,0,0,1.1,3,3.62,3.62,0,0,0,2.68,1.12,3.72,3.72,0,0,0,2.68-1.12,4.36,4.36,0,0,0,1.12-3Zm3.06,0v5.65a1.54,1.54,0,0,1-1.53,1.53,1.58,1.58,0,0,1-1.5-1.24,6.51,6.51,0,0,1-3.83,1.24,6.69,6.69,0,0,1-4.9-2.11,7.36,7.36,0,0,1-2-5.07,7.25,7.25,0,0,1,2-5.07,6.63,6.63,0,0,1,4.9-2.17,6.54,6.54,0,0,1,3.83,1.27,1.57,1.57,0,0,1,1.5-1.27,1.55,1.55,0,0,1,1.53,1.56Zm12.89,3A1.5,1.5,0,0,1,472,79.9a5.26,5.26,0,0,0,3.17,1.27,3.92,3.92,0,0,0,2-.54,1.21,1.21,0,0,0,.52-.87.42.42,0,0,0-.09-.29.87.87,0,0,0-.37-.34,6.66,6.66,0,0,0-2.31-.81h0a11.3,11.3,0,0,1-2.51-.75,4.81,4.81,0,0,1-2-1.67,3.49,3.49,0,0,1-.49-1.82,4,4,0,0,1,1.7-3.17,6.22,6.22,0,0,1,3.54-1.07,7.41,7.41,0,0,1,4.33,1.59,1.59,1.59,0,0,1,.46,2.13,1.53,1.53,0,0,1-2.13.41,5,5,0,0,0-2.66-1.07,2.94,2.94,0,0,0-1.73.52.89.89,0,0,0-.46.66.29.29,0,0,0,.06.23.7.7,0,0,0,.32.29,5.75,5.75,0,0,0,2.1.69l0,0h0a10.09,10.09,0,0,1,2.68.84,4.42,4.42,0,0,1,2.05,1.7,3.76,3.76,0,0,1,.54,1.9,4.16,4.16,0,0,1-1.81,3.35,6.66,6.66,0,0,1-3.75,1.15,8.38,8.38,0,0,1-5.13-2,1.54,1.54,0,0,1-.2-2.14" transform="translate(-0.74)" style="fill:#15142a;fill-rule:evenodd"/><g style="mask:url(#mask-2)"><path d="M501.57,53.24H462a12,12,0,0,1-12-12v-2.1a12,12,0,0,1,12-11.95h39.53a12,12,0,0,1,11.95,12v2.1a12,12,0,0,1-11.95,12" transform="translate(-0.74)" style="fill:#5d64e9;fill-rule:evenodd"/></g><g style="isolation:isolate"><g style="isolation:isolate"><path d="M475.13,40.69a2.12,2.12,0,0,1,.41,1.34,2.27,2.27,0,0,1-.82,2,3.36,3.36,0,0,1-1.94.56h-3a.72.72,0,0,1-.73-.73V36.91a.72.72,0,0,1,.21-.52.7.7,0,0,1,.52-.21h3c1.52,0,2.28.71,2.28,2.14a1.67,1.67,0,0,1-.26,1,1.72,1.72,0,0,1-.73.65A2.42,2.42,0,0,1,475.13,40.69Zm-1.84-2.85a1,1,0,0,0-.69-.24h-2v1.87h2a.92.92,0,0,0,.63-.24.83.83,0,0,0,.27-.65A1,1,0,0,0,473.29,37.84Zm.37,5.06A1.15,1.15,0,0,0,474,42a1,1,0,0,0-.38-.93,1.8,1.8,0,0,0-.91-.22h-2.07V43.2h2.16A1.24,1.24,0,0,0,473.66,42.9Z" transform="translate(-0.74)" style="fill:#f2f5f5"/><path d="M482.19,43.41a.67.67,0,0,1,.21.49.64.64,0,0,1-.21.49.73.73,0,0,1-.52.19h-4a.72.72,0,0,1-.73-.73V36.91a.72.72,0,0,1,.21-.52.7.7,0,0,1,.52-.21h4a.73.73,0,0,1,.52.2.71.71,0,0,1,0,1,.79.79,0,0,1-.53.18h-3.25v2h2.71a.73.73,0,0,1,.52.2.66.66,0,0,1,.21.51.63.63,0,0,1-.2.48.75.75,0,0,1-.53.19h-2.71V43.2h3.25A.7.7,0,0,1,482.19,43.41Z" transform="translate(-0.74)" style="fill:#f2f5f5"/></g><g style="isolation:isolate"><path d="M489.83,36.37a.69.69,0,0,1,.2.51.69.69,0,0,1-.2.5.77.77,0,0,1-.53.18h-1.88v6.29a.68.68,0,0,1-.23.52.8.8,0,0,1-.57.21.77.77,0,0,1-.55-.21.7.7,0,0,1-.21-.52V37.56H484a.75.75,0,0,1-.53-.19.69.69,0,0,1-.2-.5.66.66,0,0,1,.21-.5.77.77,0,0,1,.52-.19h5.33A.78.78,0,0,1,489.83,36.37Z" transform="translate(-0.74)" style="fill:#f2f5f5"/></g><g style="isolation:isolate"><path d="M496.74,43.93a.69.69,0,0,1-.2.51.63.63,0,0,1-.47.2.59.59,0,0,1-.39-.13.82.82,0,0,1-.27-.36l-.62-1.45h-3.58l-.63,1.46a.7.7,0,0,1-.25.35.62.62,0,0,1-.38.13.59.59,0,0,1-.64-.62,1,1,0,0,1,0-.23l3-7.18a.81.81,0,0,1,.28-.37.79.79,0,0,1,.84,0,.74.74,0,0,1,.27.35l2.95,7A.74.74,0,0,1,496.74,43.93Zm-4.94-2.61h2.4L493,38.51Z" transform="translate(-0.74)" style="fill:#f2f5f5"/></g></g></svg>