<svg id="Layer_1" data-name="Layer 1" xmlns="http://www.w3.org/2000/svg" xmlns:xlink="http://www.w3.org/1999/xlink" width="2719" height="2521" viewBox="0 0 2719 2521"><defs><clipPath id="clip-path"><rect x="-462.33" width="1821.65" height="1689" style="fill:none"/></clipPath></defs><title>sidebar-bg</title><g id="Header_Image" data-name="Header Image" style="opacity:0.71"><g style="clip-path:url(#clip-path)"><g style="opacity:0.19"><path d="M-394.15-174.48c90.39,120.73,434.66,500.68,499.77,536,25.95,14.06,50.81,26.27,77.66,36.6,78.79,30.3,117.65-63.7,190.51,7.15,93.62,91,144.55-31.28,212.87-22C712.38,400.39,769,522.46,832,498.71c41.22-15.54-109.51-343.38-182.44-379.14C431.07,12.45,624.39-39.84,325.45-100.11,17.23-162.25-525.85-350.37-394.15-174.48Z" style="fill:#d1395d"/><path d="M626.65,459c-2.57-6.15-7.94-11.09-14.1-14-8.65-4.06-18.33-4.29-27.77-3.84-9.68.46-19.36,1-29,1.56-3.11.17-6.23.35-9.35.56-3.71-.67-7.43-1.34-11.14-2-6-1-11.83-1.86-17.86-.92a22.15,22.15,0,0,0-14.83,8.91c-5,3.28-10,6.56-14.9,9.95-6,4.16-11.61,9.11-14.29,15.91-2.58,6.53-2,14.24,2.6,19.8,4.33,5.24,11.44,7.17,18.17,6.62s12.75-3.2,19.18-5.27c4.25-1.38,11.57-3.82,15.09.19s2,10.94,2.19,15.58c.27,6.91,2,13.1,6.36,18.71A32,32,0,0,0,589,528.27c4-6.38,3.49-13.93,6.84-20.4,2.87-5.55,8.63-9.37,13.6-13.06,5.72-4.23,11.39-8.8,15-14.89C628.4,473.49,629.56,466,626.65,459Z" style="fill:#d1395d"/><path d="M902.84,262.8c5.16-27.09,10-51.09,31.48-91C967.26,110.54,1024,40.4,1048.71,10c58-71.29,95.82-107.65,87.78-118.83-7.19-10-41,13.91-63,10.41-32-5.07-7.52-62.77,40.71-118.18,41.22-47.36,68.26-56.77,112.58-105.79,45-49.74,40.22-65.6,71.82-126.91,17.09-33.17,74.09-143.79,136.94-185.43,55.07-36.48,107.2-15.08,129.12,11.72,10.68,13.06,45.6,65.82-83.05,301.4-110,201.5-174.16,233.57-218.24,356.11C1227,135.57,1251,168.29,1170.84,247c-62.6,61.47-162,124.8-219,140.74C875,409.31,888,341,902.84,262.8Z" style="fill:#eab93f"/><path d="M1095.63-73.93a11.15,11.15,0,0,0-1.55-9.29,5.43,5.43,0,0,0-7.13-1.24l-.6.38-.47.1-39.37,10.52c-12,3.19-24.09,7.16-35.92,8.15a40.88,40.88,0,0,1-16.47-1.62c-5.1-1.69-9.89-4.26-15.07-5.74-10.46-3-22.19,0-31.67,12.21a61.11,61.11,0,0,0-12.15,41.23c1.19,14,7.4,24.81,16.42,30.13,9.31,5.49,20.26,6,31.42,2.65,11.47-3.39,22.79-10.59,33.67-18.27,13.43-9.46,26.75-19.34,40.11-29.06,12.05-8.75,23.84-18.11,33.55-31.93A14.12,14.12,0,0,0,1095.63-73.93Z" style="fill:#eab93f"/><path d="M970.89,76.49c-.08-7.47-.08-14.94-.28-22.4-.17-6.65-.12-14.51-4.54-19.55-4.75-5.41-12.62-4-18.88-4-6.73,0-13.6-.49-20.25,1.14-5.93,1.45-11.26,5.13-15.66,9.77s-7.6,11.13-7.18,18a21.74,21.74,0,0,0,8.06,15.84,23.49,23.49,0,0,0,7.47,3.61c.67.21,1.4.38,2.13.56a6.16,6.16,0,0,1,1.91,4.2A13.9,13.9,0,0,1,922.58,89a33.73,33.73,0,0,1-5.74,6.39c-2.34,1.16-5,1.68-7.41,2.68a16.73,16.73,0,0,0-8.29,7.2,12.4,12.4,0,0,0-4.29,5.5c-3.28,7.87,1.77,16,7.82,19.67s13.32,3.63,19.75,1.28c6.68-2.44,12.34-7.32,17.52-12.49q3.13-3.13,6-6.58,2-1.16,4.05-2.34c5.41-3.18,11.72-6.18,15.48-11.83C971.76,92,971,84,970.89,76.49Z" style="fill:#eab93f"/><path d="M752.72,593.94c169.61-22.91,175,45.28,90.37,89.55-30.35,15.87-71.94,28.2-85.68,41.6-20.17,19.67,56.22,6,63,23.75,8.4,21.85-94.25,78.7-199.89,116.76-62.75,22.6-83.25,23-127,42-67.65,29.46-95.41,62-76.2,76,19,13.78,69.11-1.3,102.56,7.86,49.14,13.46,12.15,65.49-89.18,112.93-83,38.83-160.25,51.74-226.37,89.54-28.42,16.25-28.44,22-54.57,48.39-51.79,52.26-109.62,71.9-103.7,86.52,6.73,16.6,70.12-.29,82.65,13.91,19.46,22.07-105.2,95.19-203.49,121.56-111.14,29.83-172.48-4.41-214.57-27.91-24.87-13.88-64.3-37.13-49.4-88.8,7.5-26,26.91-52.85,215.71-211.78C90.14,956.37,143,925.3,141.05,883.15c-1.34-29-27.2-33.51,12-64.45C235,754,555.27,620.61,752.72,593.94Z" style="fill:#57c6a4"/><path d="M878.47,730.35c-1.77-1.76-5.28-2.93-6.76-4.71-1-1.2.17-2.93.52-4.21.67-2.42.95-4.94-.21-7.32-2.29-4.66-9.06-7.48-16.37-8.56-15.6-2.29-30.74,4.18-29.75,14.58.85,9,11.48,13.86,23.33,17a20.2,20.2,0,0,0,15,8c7.8.69,15.47-2.21,17.07-7.17C882.15,735.36,880.7,732.55,878.47,730.35Z" style="fill:#57c6a4"/><path d="M688.26,940.76c-8-2.71-17.28-4.08-26-5.81-9.35-1.87-18.69-3.76-28-5.6-18.17-3.59-36.57-6.85-55.51-8.36-19.13-1.52-40.44-1.37-56.42,6.32-13.43,6.46-19.81,19.22-10.87,28.71a10.62,10.62,0,0,0,7,3.08,12.53,12.53,0,0,0,2.32.19A182.45,182.45,0,0,1,551,961.44c1.37.27,2.74.51,4.12.7q8.05,1.47,15.89,3.71c.8.47,1.59.94,2.35,1.43,10.78,6.87,17,14.87,24,23.29,7.3,8.8,17.59,16.43,34.07,18,17.65,1.65,34.55-4.53,45.9-12.53s23.19-18,27-28.46C708,957.59,703.52,945.9,688.26,940.76Z" style="fill:#57c6a4;opacity:0"/><path d="M722.5,895.73c-4.73-7.05-16.16-12.53-28.38-13.28a81.2,81.2,0,0,0-26.52,3.09l-2.33-.14c-15.51-.91-35.53-3-45.58,6.66a8.21,8.21,0,0,0-2.87,6,2.53,2.53,0,0,0-.26,1l.24,1.95a1.72,1.72,0,0,1,.07.21c0,.06.16.36.34.72a7.18,7.18,0,0,0,1.28,2,12.94,12.94,0,0,0,4.59,3.36,17.12,17.12,0,0,0,3.52,1.18,14.93,14.93,0,0,0,6.22,1.52l24.57.73q6.5,1.86,13,3.63c13.07,3.51,27.72,5.57,40.85,1C722.51,911.55,727.52,903.21,722.5,895.73Z" style="fill:#57c6a4;opacity:0"/></g></g></g></svg>